<svg width="72" height="69" viewBox="0 0 72 69" fill="none" xmlns="http://www.w3.org/2000/svg">
<path d="M54.408 27.2078C56.4004 25.2154 56.4004 22.0125 56.4004 15.6001C56.4004 9.18765 56.4004 5.98483 54.408 3.99241M54.408 27.2078C52.4156 29.2002 49.2127 29.2002 42.8003 29.2002H29.2002C22.7877 29.2002 19.5849 29.2002 17.5925 27.2078M54.408 3.99241C52.4156 2 49.2127 2 42.8003 2H29.2002C22.7877 2 19.5849 2 17.5925 3.99241M17.5925 3.99241C15.6001 5.98483 15.6001 9.18765 15.6001 15.6001C15.6001 22.0125 15.6001 25.2154 17.5925 27.2078M39.4003 15.6001C39.4003 16.5018 39.0421 17.3667 38.4044 18.0043C37.7668 18.6419 36.902 19.0001 36.0002 19.0001C35.0985 19.0001 34.2337 18.6419 33.5961 18.0043C32.9584 17.3667 32.6002 16.5018 32.6002 15.6001C32.6002 14.6984 32.9584 13.8335 33.5961 13.1959C34.2337 12.5583 35.0985 12.2001 36.0002 12.2001C36.902 12.2001 37.7668 12.5583 38.4044 13.1959C39.0421 13.8335 39.4003 14.6984 39.4003 15.6001Z" stroke="#00AEEF" stroke-width="3"/>
<path d="M56.4005 12.2001C53.6953 12.2001 51.1009 11.1254 49.188 9.21254C47.2751 7.29966 46.2004 4.70523 46.2004 2M56.4005 19.0001C53.6953 19.0001 51.1009 20.0748 49.188 21.9877C47.2751 23.9005 46.2004 26.495 46.2004 29.2002M15.6002 12.2001C18.3054 12.2001 20.8999 11.1254 22.8128 9.21254C24.7256 7.29966 25.8003 4.70523 25.8003 2M15.6002 19.0001C18.3054 19.0001 20.8999 20.0748 22.8128 21.9877C24.7256 23.9005 25.8003 26.495 25.8003 29.2002M12.2002 61.1196H19.8843C23.3183 61.1196 26.7965 61.48 30.1387 62.1668C36.1062 63.389 42.2452 63.5249 48.2609 62.568C51.2121 62.092 54.1089 61.361 56.7337 60.0962C59.1001 58.9504 62.0004 57.3422 63.9486 55.5368C65.8934 53.7348 67.9198 50.787 69.3546 48.4817C70.5922 46.5029 69.9938 44.0787 68.0422 42.6065C66.9449 41.8103 65.6239 41.3815 64.2682 41.3815C62.9124 41.3815 61.5914 41.8103 60.4941 42.6065L54.3503 47.2475C51.9703 49.0495 49.3693 50.7054 46.2718 51.1984C45.8978 51.2573 45.5068 51.3106 45.0988 51.3582M45.0988 51.3582L44.7248 51.399M45.0988 51.3582C45.6429 51.2107 46.1418 50.9303 46.5506 50.5422C47.0638 50.0994 47.4829 49.5583 47.7832 48.9507C48.0834 48.3431 48.2587 47.6814 48.2987 47.0049C48.3386 46.3283 48.2424 45.6506 48.0157 45.0119C47.7891 44.3732 47.4365 43.7865 46.979 43.2865C46.536 42.7946 46.02 42.3738 45.449 42.0387C35.9392 36.364 21.1389 40.6855 12.2002 47.0265M45.0988 51.3582C44.9761 51.3856 44.8506 51.3992 44.7248 51.399M44.7248 51.399C42.6743 51.6045 40.6086 51.609 38.5572 51.4126" stroke="#00AEEF" stroke-width="3" stroke-linecap="round"/>
<path d="M12.2001 44.5004C12.2001 41.6838 9.91671 39.4004 7.10004 39.4004C4.28336 39.4004 2 41.6838 2 44.5004V61.5006C2 64.3172 4.28336 66.6006 7.10004 66.6006C9.91671 66.6006 12.2001 64.3172 12.2001 61.5006V44.5004Z" stroke="#00AEEF" stroke-width="3"/>
</svg>
