<svg width="60" height="61" viewBox="0 0 60 61" fill="none" xmlns="http://www.w3.org/2000/svg">
<path d="M37.5 30.6154H30M30 30.6154H22.5M30 30.6154V23.1154M30 30.6154V38.1154" stroke="#00395D" stroke-width="3.75" stroke-linecap="round"/>
<path d="M55 30.6154C55 42.4004 55 48.2932 51.3387 51.9542C47.6777 55.6154 41.785 55.6154 30 55.6154C18.2149 55.6154 12.3223 55.6154 8.66117 51.9542C5 48.2932 5 42.4004 5 30.6154C5 18.8303 5 12.9377 8.66117 9.27659C12.3223 5.61542 18.2149 5.61542 30 5.61542C41.785 5.61542 47.6777 5.61542 51.3387 9.27659C53.7732 11.7109 54.589 15.1318 54.8623 20.6154" stroke="#00395D" stroke-width="3.75" stroke-linecap="round"/>
</svg>
