<svg width="61" height="61" viewBox="0 0 61 61" fill="none" xmlns="http://www.w3.org/2000/svg">
<g clip-path="url(#clip0_62_7)">
<path d="M58.8286 11.0192H21.8499V9.557C21.8499 7.41247 20.1052 5.66779 17.9607 5.66779H11.9255C9.78097 5.66779 8.03628 7.41247 8.03628 9.557V11.0192H1.94019C1.08097 11.0192 0.384521 11.7158 0.384521 12.5749C0.384521 13.434 1.08097 14.1306 1.94019 14.1306H8.03604V15.5923C8.03604 17.7368 9.78073 19.4815 11.9253 19.4815H17.9605C20.1051 19.4815 21.8498 17.7368 21.8498 15.5923V14.1306H58.8286C59.6878 14.1306 60.3843 13.4339 60.3843 12.5749C60.3844 11.7158 59.6878 11.0192 58.8286 11.0192ZM18.7385 15.5923C18.7385 16.0212 18.3896 16.3702 17.9607 16.3702H11.9254C11.4965 16.3702 11.1475 16.0212 11.1475 15.5923V9.557C11.1475 9.1281 11.4965 8.77911 11.9254 8.77911H17.9607C18.3896 8.77911 18.7385 9.1281 18.7385 9.557V15.5923Z" fill="#00395D"/>
<path d="M58.8289 28.3465H52.7329V26.8839C52.7329 24.7394 50.9882 22.9947 48.8437 22.9947H42.8084C40.6639 22.9947 38.9192 24.7394 38.9192 26.8839V28.3465H1.94019C1.08097 28.3465 0.384521 29.0431 0.384521 29.9022C0.384521 30.7613 1.08097 31.4579 1.94019 31.4579H38.9191V32.9191C38.9191 35.0636 40.6637 36.8083 42.8083 36.8083H48.8435C50.9881 36.8083 52.7328 35.0636 52.7328 32.9191V31.4579H58.8287C59.688 31.4579 60.3844 30.7612 60.3844 29.9022C60.3845 29.0431 59.6881 28.3465 58.8289 28.3465ZM49.6214 32.9192C49.6214 33.3481 49.2725 33.6971 48.8435 33.6971H42.8083C42.3794 33.6971 42.0304 33.3481 42.0304 32.9192V26.8839C42.0304 26.455 42.3794 26.106 42.8083 26.106H48.8435C49.2725 26.106 49.6214 26.455 49.6214 26.8839V32.9192Z" fill="#00395D"/>
<path d="M58.8289 46.9464H32.7789V45.4847C32.7789 43.3402 31.0342 41.5955 28.8897 41.5955H22.8544C20.7099 41.5955 18.9652 43.3402 18.9652 45.4847V46.9464H1.94019C1.08097 46.9464 0.384521 47.6431 0.384521 48.5021C0.384521 49.3612 1.08097 50.0577 1.94019 50.0577H18.9651V51.5199C18.9651 53.6644 20.7098 55.4091 22.8543 55.4091H28.8896C31.0341 55.4091 32.7788 53.6644 32.7788 51.5199V50.0577H58.8287C59.688 50.0577 60.3844 49.3611 60.3844 48.5021C60.3845 47.6429 59.6881 46.9464 58.8289 46.9464ZM29.6675 51.52C29.6675 51.9489 29.3185 52.2979 28.8896 52.2979H22.8543C22.4254 52.2979 22.0764 51.9489 22.0764 51.52V45.4847C22.0764 45.0558 22.4254 44.7069 22.8543 44.7069H28.8896C29.3185 44.7069 29.6675 45.0558 29.6675 45.4847V51.52Z" fill="#00395D"/>
</g>
<defs>
<clipPath id="clip0_62_7">
<rect width="60" height="60" fill="white" transform="translate(0.384521 0.538513)"/>
</clipPath>
</defs>
</svg>
