<svg width="60" height="61" viewBox="0 0 60 61" fill="none" xmlns="http://www.w3.org/2000/svg">
<path d="M45 15.6154L42.9978 45.6477C42.8225 48.2779 42.7347 49.5932 42.1667 50.5904C41.6665 51.4684 40.912 52.1742 40.0028 52.6149C38.97 53.1154 37.6517 53.1154 35.0155 53.1154H24.9844C22.3482 53.1154 21.03 53.1154 19.9972 52.6149C19.0879 52.1742 18.3335 51.4684 17.8333 50.5904C17.2652 49.5932 17.1775 48.2779 17.0021 45.6477L15 15.6154M10 15.6154H50M40 15.6154L39.3235 13.5856C38.6677 11.6185 38.3398 10.635 37.7318 9.90787C37.1948 9.26574 36.5052 8.76872 35.7262 8.46237C34.844 8.11542 33.8075 8.11542 31.734 8.11542H28.266C26.1925 8.11542 25.156 8.11542 24.2738 8.46237C23.4948 8.76872 22.8052 9.26574 22.2682 9.90787C21.6601 10.635 21.3323 11.6185 20.6766 13.5856L20 15.6154M35 25.6154V43.1154M25 25.6154V43.1154" stroke="#DB2700" stroke-width="5" stroke-linecap="round" stroke-linejoin="round"/>
</svg>
