<svg width="60" height="61" viewBox="0 0 60 61" fill="none" xmlns="http://www.w3.org/2000/svg">
<path d="M53.1998 16.6155L29.3498 40.4654C26.9748 42.8404 19.9247 43.9404 18.3497 42.3654C16.7747 40.7904 17.8497 33.7404 20.2247 31.3654L44.0998 7.49047C44.6885 6.84812 45.4013 6.33177 46.1953 5.97252C46.989 5.61327 47.8475 5.41852 48.7188 5.40017C49.5898 5.38184 50.4558 5.54019 51.264 5.86572C52.0723 6.19124 52.8063 6.67724 53.4215 7.29424C54.0368 7.91124 54.5208 8.64649 54.844 9.45564C55.1673 10.2648 55.3235 11.1311 55.3028 12.0022C55.282 12.8733 55.0848 13.7313 54.7235 14.5242C54.362 15.317 53.8438 16.0285 53.1998 16.6155Z" stroke="#00395D" stroke-width="3.75" stroke-linecap="round" stroke-linejoin="round"/>
<path d="M27.5 10.6154H15C12.3478 10.6154 9.80445 11.669 7.92907 13.5443C6.05372 15.4197 5 17.9632 5 20.6154V45.6154C5 48.2677 6.05372 50.8112 7.92907 52.6864C9.80445 54.5619 12.3478 55.6154 15 55.6154H42.5C48.025 55.6154 50 51.1154 50 45.6154V33.1154" stroke="#00395D" stroke-width="3.75" stroke-linecap="round" stroke-linejoin="round"/>
</svg>
