<svg width="61" height="61" viewBox="0 0 61 61" fill="none" xmlns="http://www.w3.org/2000/svg">
<path fill-rule="evenodd" clip-rule="evenodd" d="M22.4962 20.3018C23.2284 21.0341 24.4156 21.0341 25.1478 20.3018L29.447 16.0027V36.476C29.447 37.5115 30.2865 38.351 31.322 38.351C32.3575 38.351 33.197 37.5115 33.197 36.476V16.0027L37.4963 20.3018C38.2285 21.0341 39.4155 21.0341 40.1478 20.3018C40.88 19.5696 40.88 18.3824 40.1478 17.6502L32.6478 10.1502C31.9155 9.41796 30.7285 9.41796 29.9963 10.1502L22.4962 17.6502C21.764 18.3824 21.764 19.5696 22.4962 20.3018Z" fill="#00395D"/>
<path d="M31.322 51.476C42.3678 51.476 51.322 42.5218 51.322 31.476H41.947C39.59 31.476 38.4115 31.476 37.6793 32.2083C36.947 32.9405 36.947 34.119 36.947 36.476C36.947 39.5825 34.4285 42.101 31.322 42.101C28.2155 42.101 25.697 39.5825 25.697 36.476C25.697 34.119 25.697 32.9405 24.9648 32.2083C24.2325 31.476 23.054 31.476 20.697 31.476H11.322C11.322 42.5218 20.2763 51.476 31.322 51.476Z" fill="#00395D"/>
</svg>
