<svg width="61" height="61" viewBox="0 0 61 61" fill="none" xmlns="http://www.w3.org/2000/svg">
<path d="M30.6923 38.2693V45.7693" stroke="#014975" stroke-width="3.75" stroke-linecap="round"/>
<path d="M55.6923 31.279V35.0818C55.6923 44.8338 55.6923 49.71 52.7633 52.7395C49.8345 55.7693 45.1203 55.7693 35.6923 55.7693H25.6923C16.2642 55.7693 11.5501 55.7693 8.62119 52.7395C5.69226 49.71 5.69226 44.8338 5.69226 35.0818V31.279C5.69226 25.558 5.69226 22.6975 6.99026 20.3261C8.28826 17.9548 10.6596 16.4831 15.4023 13.5396L20.4023 10.4365C25.4157 7.32501 27.9225 5.76929 30.6923 5.76929C33.462 5.76929 35.9688 7.32501 40.9823 10.4365L45.9823 13.5396C50.725 16.4831 53.0963 17.9548 54.3943 20.3261" stroke="#014975" stroke-width="3.75" stroke-linecap="round"/>
</svg>
