<svg width="139" height="139" viewBox="0 0 139 139" fill="none" xmlns="http://www.w3.org/2000/svg">
<path fill-rule="evenodd" clip-rule="evenodd" d="M138.25 69.5C138.25 107.471 107.471 138.25 69.5001 138.25C58.5001 138.25 48.1051 135.665 38.8926 131.072C36.4598 129.812 33.6496 129.487 30.9932 130.158L15.6895 134.256C14.1747 134.66 12.5803 134.658 11.0662 134.252C9.55215 133.845 8.17172 133.047 7.0635 131.938C5.95528 130.829 5.15824 129.448 4.7524 127.934C4.34656 126.42 4.34619 124.825 4.75134 123.311L8.84196 108.007C9.50923 105.352 9.18153 102.544 7.92071 100.114C3.18818 90.6039 0.733257 80.1229 0.750086 69.5C0.750086 31.5294 31.5295 0.75 69.5001 0.75C107.471 0.75 138.25 31.5294 138.25 69.5ZM69.5001 36.8438C70.8676 36.8438 72.1791 37.387 73.1461 38.354C74.1131 39.321 74.6563 40.6325 74.6563 42V42.0688C82.1432 43.9594 88.4063 49.8581 88.4063 58.0394C88.4063 59.4069 87.8631 60.7184 86.8961 61.6854C85.9291 62.6524 84.6176 63.1956 83.2501 63.1956C81.8826 63.1956 80.5711 62.6524 79.6041 61.6854C78.6371 60.7184 78.0938 59.4069 78.0938 58.0394C78.0938 55.3994 75.1651 51.7419 69.5001 51.7419C63.8351 51.7419 60.9063 55.3994 60.9063 58.0394C60.9063 60.6794 63.8351 64.3438 69.5001 64.3438C79.022 64.3438 88.4063 70.9437 88.4063 80.9606C88.4063 89.1419 82.1432 95.0475 74.6563 96.9312V97C74.6563 98.3675 74.1131 99.679 73.1461 100.646C72.1791 101.613 70.8676 102.156 69.5001 102.156C68.1326 102.156 66.8211 101.613 65.8541 100.646C64.8871 99.679 64.3438 98.3675 64.3438 97V96.9312C56.857 95.0475 50.5938 89.1419 50.5938 80.9606C50.5938 79.5931 51.1371 78.2816 52.1041 77.3146C53.0711 76.3476 54.3826 75.8044 55.7501 75.8044C57.1176 75.8044 58.4291 76.3476 59.3961 77.3146C60.3631 78.2816 60.9063 79.5931 60.9063 80.9606C60.9063 83.6006 63.8351 87.2581 69.5001 87.2581C75.1651 87.2581 78.0938 83.6006 78.0938 80.9606C78.0938 78.3206 75.1651 74.6562 69.5001 74.6562C59.9782 74.6562 50.5938 68.0563 50.5938 58.0394C50.5938 49.8581 56.857 43.9594 64.3438 42.0688V42C64.3438 40.6325 64.8871 39.321 65.8541 38.354C66.8211 37.387 68.1326 36.8438 69.5001 36.8438Z" fill="#8A83ED"/>
</svg>
