<svg width="123" height="123" viewBox="0 0 123 123" fill="none" xmlns="http://www.w3.org/2000/svg">
<path d="M107.323 41.9686C110.295 44.9052 111.576 48.6054 112.176 52.9975C112.75 57.2308 112.75 62.6121 112.75 69.2848V69.8229C112.75 76.4957 112.75 81.8769 112.176 86.1102C111.576 90.5023 110.295 94.2026 107.323 97.1392C104.35 100.076 100.609 101.342 96.1604 101.931C91.881 102.5 86.4331 102.5 79.6784 102.5H54.4377C47.683 102.5 42.2402 102.5 37.9557 101.931C33.5072 101.342 29.766 100.076 26.7935 97.1392C25.0653 95.411 23.7739 93.2957 23.0266 90.9687C27.4905 91.5171 33.0204 91.5171 39.401 91.5171H65.0772C71.6424 91.5171 77.3004 91.5171 81.836 90.9174C86.6894 90.2717 91.348 88.8162 95.1251 85.0852C98.9022 81.3542 100.373 76.7519 101.024 71.9549C101.639 67.4757 101.639 61.8843 101.634 55.3909V54.4274C101.634 48.1237 101.634 42.6604 101.07 38.2427C103.428 39.0166 105.519 40.1851 107.323 41.9686ZM52.2391 46.3709C47.4626 46.3709 43.5932 50.1942 43.5932 54.9092C43.5932 59.6242 47.4626 63.4525 52.2391 63.4525C57.0105 63.4525 60.8799 59.6293 60.8799 54.9092C60.8799 50.1942 57.0105 46.3709 52.2391 46.3709Z" fill="#3BB800"/>
<path fill-rule="evenodd" clip-rule="evenodd" d="M14.5909 29.9146C10.25 34.2042 10.25 41.1025 10.25 54.9092C10.25 68.716 10.25 75.6194 14.5909 79.909C18.9317 84.1986 25.9171 84.1986 39.8879 84.1986H64.5904C78.556 84.1986 85.5414 84.1986 89.8823 79.909C94.2231 75.6194 94.2231 68.716 94.2231 54.9092C94.2231 41.1025 94.2231 34.2042 89.8823 29.9146C85.5414 25.625 78.556 25.625 64.5853 25.625H39.8879C25.9171 25.625 18.9266 25.625 14.5909 29.9146ZM36.1825 54.9092C36.1825 46.1455 43.3729 39.0474 52.2391 39.0474C61.1054 39.0474 68.2906 46.1506 68.2906 54.9092C68.2906 63.6679 61.1054 70.7763 52.2391 70.7763C43.3729 70.7763 36.1825 63.673 36.1825 54.9092ZM79.4068 68.3367C77.3568 68.3367 75.7014 66.6968 75.7014 64.6724V45.1513C75.7014 43.132 77.3568 41.492 79.4068 41.492C81.4568 41.492 83.1121 43.132 83.1121 45.1564V64.6826C83.1026 65.6577 82.7076 66.5894 82.0133 67.2741C81.319 67.9588 80.3819 68.3409 79.4068 68.3367ZM21.3661 64.6724C21.3661 66.6968 23.0215 68.3316 25.0715 68.3316C27.1215 68.3316 28.7717 66.6916 28.7717 64.6724V45.1513C28.7636 44.1762 28.3699 43.2439 27.6765 42.5583C26.9832 41.8726 26.0466 41.4893 25.0715 41.492C23.0215 41.492 21.3661 43.132 21.3661 45.1564V64.6724Z" fill="#3BB800"/>
</svg>
