<svg width="112" height="118" viewBox="0 0 112 118" fill="none" xmlns="http://www.w3.org/2000/svg">
<path d="M7.70825 36.25C7.70825 20.1068 7.70825 12.0295 12.7259 7.01762C17.7378 2 25.8151 2 41.9583 2H76.2083C92.3514 2 100.429 2 105.441 7.01762C110.458 12.0295 110.458 20.1068 110.458 36.25V81.9167C110.458 98.0598 110.458 106.137 105.441 111.149C100.429 116.167 92.3514 116.167 76.2083 116.167H41.9583C25.8151 116.167 17.7378 116.167 12.7259 111.149C7.70825 106.137 7.70825 98.0598 7.70825 81.9167V36.25Z" stroke="#00395D" stroke-width="3"/>
<path d="M36.25 4.85425V116.167M2 59.0834H13.4167M2 81.9168H13.4167M2 36.2501H13.4167M56.2292 27.6876H84.7708M56.2292 47.6667H84.7708" stroke="#00395D" stroke-width="3" stroke-linecap="round"/>
</svg>
