<svg width="60" height="60" viewBox="0 0 60 60" fill="none" xmlns="http://www.w3.org/2000/svg">
<g clip-path="url(#clip0_67_25)">
<path d="M33.0654 60H26.9345C24.7169 60 22.9128 58.1959 22.9128 55.9783V51.6126C21.8233 51.2549 20.7583 50.8131 19.7308 50.292L16.6419 53.3809C15.0739 54.9489 12.5223 54.9489 10.9543 53.3809L6.61912 49.0456C5.05124 47.4776 5.05124 44.9263 6.61912 43.3581L9.70817 40.2691C9.18717 39.2417 8.74506 38.1767 8.38757 37.0871H4.02155C1.80406 37.0871 0 35.283 0 33.0655V26.9345C0 24.717 1.80406 22.9129 4.02155 22.9129H8.38745C8.74494 21.8233 9.18693 20.7583 9.70805 19.7309L6.61912 16.6419C5.05124 15.0737 5.05124 12.5224 6.61912 10.9544L10.9543 6.61912C12.5223 5.05124 15.0739 5.05124 16.6419 6.61912L19.7308 9.70805C20.7583 9.18693 21.8233 8.74494 22.9128 8.38745V4.02167C22.9128 1.80406 24.717 0 26.9346 0H33.0655C35.2831 0 37.0872 1.80406 37.0872 4.02167V8.38745C38.1767 8.74506 39.2417 9.18693 40.2692 9.70805L43.3581 6.61912C44.9261 5.05112 47.4777 5.05112 49.0457 6.61912L53.3809 10.9543C54.9488 12.5223 54.9488 15.0736 53.3809 16.6418L50.2918 19.7308C50.8128 20.7582 51.2549 21.8231 51.6124 22.9128H55.9783C58.1959 22.9128 59.9999 24.7169 59.9999 26.9344V33.0654C59.9999 35.2829 58.1958 37.0869 55.9783 37.0869H51.6124C51.2549 38.1766 50.8129 39.2416 50.2918 40.269L53.3809 43.3579C54.9488 44.926 54.9488 47.4773 53.3809 49.0453L49.0457 53.3806C47.4777 54.9485 44.9261 54.9485 43.3581 53.3806L40.2692 50.2917C39.2417 50.8128 38.1767 51.2548 37.0872 51.6123V55.9781C37.0872 58.1959 35.283 60 33.0654 60ZM19.5116 47.6258C19.7107 47.6258 19.9113 47.6755 20.094 47.7776C21.4698 48.546 22.9302 49.152 24.4342 49.5785C24.9485 49.7245 25.3033 50.1939 25.3033 50.7284V55.9783C25.3033 56.8777 26.0351 57.6096 26.9345 57.6096H33.0654C33.9648 57.6096 34.6966 56.8777 34.6966 55.9783V50.7284C34.6966 50.1939 35.0515 49.7245 35.5657 49.5785C37.0697 49.1518 38.53 48.546 39.9059 47.7776C40.3725 47.517 40.9557 47.5978 41.3338 47.976L45.0483 51.6906C45.6841 52.3265 46.7192 52.3267 47.3552 51.6906L51.6904 47.3554C52.3263 46.7194 52.3263 45.6846 51.6904 45.0485L47.9757 41.334C47.5977 40.956 47.5167 40.3728 47.7775 39.9061C48.5457 38.5304 49.1517 37.0701 49.5784 35.5659C49.7243 35.0517 50.1937 34.6969 50.7282 34.6969H55.9782C56.8776 34.6969 57.6093 33.9651 57.6093 33.0657V26.9347C57.6093 26.0353 56.8776 25.3036 55.9782 25.3036H50.7282C50.1937 25.3036 49.7243 24.9488 49.5784 24.4346C49.1517 22.9304 48.5456 21.4701 47.7775 20.0944C47.5167 19.6277 47.5977 19.0445 47.9757 18.6665L51.6904 14.9518C52.3263 14.3159 52.3263 13.281 51.6904 12.6449L47.3552 8.30976C46.7193 7.6739 45.6843 7.67367 45.0483 8.30976L41.3338 12.0243C40.9559 12.4024 40.3728 12.4832 39.9059 12.2227C38.53 11.4543 37.0697 10.8483 35.5657 10.4217C35.0514 10.2758 34.6966 9.80629 34.6966 9.27179V4.02167C34.6966 3.12227 33.9648 2.39044 33.0654 2.39044H26.9345C26.0351 2.39044 25.3033 3.12227 25.3033 4.02167V9.27155C25.3033 9.80606 24.9484 10.2755 24.4342 10.4215C22.9302 10.8482 21.4698 11.454 20.094 12.2224C19.6274 12.4831 19.0441 12.4021 18.6661 12.024L14.9516 8.3094C14.3157 7.67355 13.2807 7.67331 12.6447 8.3094L8.30952 12.6446C7.67355 13.2806 7.67355 14.3154 8.30952 14.9515L12.0241 18.666C12.4022 19.044 12.4832 19.6272 12.2224 20.0939C11.4541 21.4696 10.8482 22.9299 10.4215 24.4341C10.2755 24.9483 9.80618 25.3031 9.27167 25.3031H4.02155C3.12215 25.3031 2.39044 26.0349 2.39044 26.9343V33.0653C2.39044 33.9647 3.12215 34.6964 4.02155 34.6964H9.27155C9.80606 34.6964 10.2754 35.0512 10.4214 35.5654C10.848 37.0696 11.4541 38.5299 12.2223 39.9056C12.4831 40.3724 12.4021 40.9555 12.024 41.3335L8.3094 45.0482C7.67343 45.6841 7.67343 46.719 8.3094 47.3551L12.6446 51.6902C13.2804 52.3261 14.3155 52.3263 14.9515 51.6902L18.666 47.9757C18.8962 47.7459 19.2022 47.6258 19.5116 47.6258ZM30 42.3838C23.1715 42.3838 17.6162 36.8284 17.6162 30C17.6162 23.1716 23.1715 17.6162 30 17.6162C36.8285 17.6162 42.3838 23.1716 42.3838 30C42.3838 36.8284 36.8285 42.3838 30 42.3838ZM30 20.0067C24.4896 20.0067 20.0067 24.4897 20.0067 30C20.0067 35.5103 24.4897 39.9933 30 39.9933C35.5103 39.9933 39.9933 35.5103 39.9933 30C39.9933 24.4897 35.5104 20.0067 30 20.0067Z" fill="#00395D"/>
<path d="M14.4622 31.1952C13.8022 31.1952 13.267 30.6601 13.267 30C13.267 26.7558 14.1967 23.6089 15.956 20.8993C17.6688 18.261 20.077 16.1639 22.9202 14.8344C23.518 14.5546 24.2294 14.8129 24.5091 15.4109C24.7888 16.0089 24.5306 16.7203 23.9326 16.9998C18.9057 19.3505 15.6574 24.4533 15.6574 30C15.6574 30.6601 15.1222 31.1952 14.4622 31.1952Z" fill="#00395D"/>
<path d="M36.2145 16.9505C36.0546 16.9505 35.8923 16.9182 35.7365 16.8502C33.9249 16.0587 31.9947 15.6573 30 15.6573C29.34 15.6573 28.8048 15.1222 28.8048 14.4621C28.8048 13.802 29.34 13.2669 30 13.2669C32.3263 13.2669 34.5783 13.7354 36.6936 14.6597C37.2985 14.924 37.5746 15.6285 37.3103 16.2334C37.1141 16.6826 36.6751 16.9505 36.2145 16.9505Z" fill="#00395D"/>
</g>
<defs>
<clipPath id="clip0_67_25">
<rect width="60" height="60" fill="white"/>
</clipPath>
</defs>
</svg>
