<svg width="110" height="110" viewBox="0 0 110 110" fill="none" xmlns="http://www.w3.org/2000/svg">
<path fill-rule="evenodd" clip-rule="evenodd" d="M100.833 55.0001C100.833 80.3138 80.3138 100.833 55.0001 100.833C29.6863 100.833 9.16675 80.3138 9.16675 55.0001C9.16675 29.6863 29.6863 9.16675 55.0001 9.16675C80.3138 9.16675 100.833 29.6863 100.833 55.0001ZM72.1876 55.0001C72.1876 55.9118 71.8254 56.7861 71.1808 57.4308C70.5361 58.0754 69.6618 58.4376 68.7501 58.4376H41.2501C40.3384 58.4376 39.4641 58.0754 38.8194 57.4308C38.1747 56.7861 37.8126 55.9118 37.8126 55.0001C37.8126 54.0884 38.1747 53.2141 38.8194 52.5694C39.4641 51.9247 40.3384 51.5626 41.2501 51.5626H68.7501C69.6618 51.5626 70.5361 51.9247 71.1808 52.5694C71.8254 53.2141 72.1876 54.0884 72.1876 55.0001Z" fill="#FF2D2D"/>
</svg>
